<svg id="visual" viewBox="0 0 1920 1080" width="1920" height="1080" xmlns="http://www.w3.org/2000/svg" xmlns:xlink="http://www.w3.org/1999/xlink" version="1.1"><g stroke-width="1" stroke-linejoin="bevel"><path d="M969 517L972 385L804 504Z" fill="#00080e" stroke="#00080e"></path><path d="M972 385L740 321L804 504Z" fill="#00080e" stroke="#00080e"></path><path d="M972 385L964 211L740 321Z" fill="#00080e" stroke="#00080e"></path><path d="M568 536L788 683L804 504Z" fill="#d0817a" stroke="#d0817a"></path><path d="M804 504L788 683L969 517Z" fill="#d0817a" stroke="#d0817a"></path><path d="M788 683L965 716L969 517Z" fill="#252939" stroke="#252939"></path><path d="M969 517L1180 389L972 385Z" fill="#3d374d" stroke="#3d374d"></path><path d="M1171 556L1180 389L969 517Z" fill="#78516c" stroke="#78516c"></path><path d="M972 385L1180 389L964 211Z" fill="#d0817a" stroke="#d0817a"></path><path d="M965 716L1171 556L969 517Z" fill="#b66e79" stroke="#b66e79"></path><path d="M964 211L761 142L740 321Z" fill="#e69779" stroke="#e69779"></path><path d="M560 397L804 504L740 321Z" fill="#3d374d" stroke="#3d374d"></path><path d="M560 397L568 536L804 504Z" fill="#d0817a" stroke="#d0817a"></path><path d="M587 148L560 397L740 321Z" fill="#78516c" stroke="#78516c"></path><path d="M965 716L1138 743L1171 556Z" fill="#252939" stroke="#252939"></path><path d="M568 536L588 714L788 683Z" fill="#141b24" stroke="#141b24"></path><path d="M965 935L1151 864L965 716Z" fill="#00080e" stroke="#00080e"></path><path d="M965 716L1151 864L1138 743Z" fill="#3d374d" stroke="#3d374d"></path><path d="M1180 389L1187 153L964 211Z" fill="#f4b079" stroke="#f4b079"></path><path d="M964 211L957 0L761 142Z" fill="#141b24" stroke="#141b24"></path><path d="M761 142L587 148L740 321Z" fill="#d0817a" stroke="#d0817a"></path><path d="M1117 0L957 0L964 211Z" fill="#985f75" stroke="#985f75"></path><path d="M761 142L581 0L587 148Z" fill="#985f75" stroke="#985f75"></path><path d="M957 0L800 0L761 142Z" fill="#d0817a" stroke="#d0817a"></path><path d="M1171 556L1348 541L1180 389Z" fill="#59445f" stroke="#59445f"></path><path d="M1180 389L1339 188L1187 153Z" fill="#00080e" stroke="#00080e"></path><path d="M1317 681L1348 541L1171 556Z" fill="#59445f" stroke="#59445f"></path><path d="M587 148L417 357L560 397Z" fill="#00080e" stroke="#00080e"></path><path d="M560 397L350 518L568 536Z" fill="#78516c" stroke="#78516c"></path><path d="M568 536L403 680L588 714Z" fill="#00080e" stroke="#00080e"></path><path d="M1138 743L1317 681L1171 556Z" fill="#d0817a" stroke="#d0817a"></path><path d="M1348 541L1363 329L1180 389Z" fill="#141b24" stroke="#141b24"></path><path d="M965 935L965 716L757 930Z" fill="#252939" stroke="#252939"></path><path d="M1138 743L1151 864L1317 681Z" fill="#59445f" stroke="#59445f"></path><path d="M757 930L965 716L788 683Z" fill="#00080e" stroke="#00080e"></path><path d="M588 714L757 930L788 683Z" fill="#59445f" stroke="#59445f"></path><path d="M1317 0L1117 0L1187 153Z" fill="#252939" stroke="#252939"></path><path d="M1187 153L1117 0L964 211Z" fill="#985f75" stroke="#985f75"></path><path d="M1363 329L1339 188L1180 389Z" fill="#00080e" stroke="#00080e"></path><path d="M350 518L403 680L568 536Z" fill="#985f75" stroke="#985f75"></path><path d="M588 714L553 871L757 930Z" fill="#00080e" stroke="#00080e"></path><path d="M403 680L553 871L588 714Z" fill="#252939" stroke="#252939"></path><path d="M417 357L350 518L560 397Z" fill="#e69779" stroke="#e69779"></path><path d="M800 0L581 0L761 142Z" fill="#252939" stroke="#252939"></path><path d="M587 148L386 185L417 357Z" fill="#b66e79" stroke="#b66e79"></path><path d="M408 0L386 185L587 148Z" fill="#252939" stroke="#252939"></path><path d="M417 357L214 368L350 518Z" fill="#f4b079" stroke="#f4b079"></path><path d="M1535 0L1317 0L1339 188Z" fill="#141b24" stroke="#141b24"></path><path d="M1339 188L1317 0L1187 153Z" fill="#78516c" stroke="#78516c"></path><path d="M1348 541L1561 356L1363 329Z" fill="#00080e" stroke="#00080e"></path><path d="M1363 329L1553 182L1339 188Z" fill="#985f75" stroke="#985f75"></path><path d="M1317 681L1518 567L1348 541Z" fill="#59445f" stroke="#59445f"></path><path d="M1555 685L1518 567L1317 681Z" fill="#59445f" stroke="#59445f"></path><path d="M736 1080L987 1080L965 935Z" fill="#d0817a" stroke="#d0817a"></path><path d="M965 935L1114 1080L1151 864Z" fill="#985f75" stroke="#985f75"></path><path d="M1151 864L1363 889L1317 681Z" fill="#e69779" stroke="#e69779"></path><path d="M736 1080L965 935L757 930Z" fill="#59445f" stroke="#59445f"></path><path d="M1363 1080L1363 889L1151 864Z" fill="#d0817a" stroke="#d0817a"></path><path d="M601 1080L736 1080L757 930Z" fill="#e69779" stroke="#e69779"></path><path d="M581 0L408 0L587 148Z" fill="#252939" stroke="#252939"></path><path d="M987 1080L1114 1080L965 935Z" fill="#f4b079" stroke="#f4b079"></path><path d="M1518 567L1561 356L1348 541Z" fill="#141b24" stroke="#141b24"></path><path d="M170 212L214 368L386 185Z" fill="#3d374d" stroke="#3d374d"></path><path d="M386 185L214 368L417 357Z" fill="#78516c" stroke="#78516c"></path><path d="M350 518L200 573L403 680Z" fill="#141b24" stroke="#141b24"></path><path d="M403 680L400 937L553 871Z" fill="#b66e79" stroke="#b66e79"></path><path d="M553 871L601 1080L757 930Z" fill="#d0817a" stroke="#d0817a"></path><path d="M189 724L400 937L403 680Z" fill="#d0817a" stroke="#d0817a"></path><path d="M400 937L601 1080L553 871Z" fill="#78516c" stroke="#78516c"></path><path d="M214 368L200 573L350 518Z" fill="#e69779" stroke="#e69779"></path><path d="M1363 889L1555 685L1317 681Z" fill="#141b24" stroke="#141b24"></path><path d="M1518 567L1693 389L1561 356Z" fill="#b66e79" stroke="#b66e79"></path><path d="M1561 356L1553 182L1363 329Z" fill="#d0817a" stroke="#d0817a"></path><path d="M0 730L189 724L200 573Z" fill="#141b24" stroke="#141b24"></path><path d="M200 573L189 724L403 680Z" fill="#f4b079" stroke="#f4b079"></path><path d="M206 0L170 212L386 185Z" fill="#b66e79" stroke="#b66e79"></path><path d="M214 368L0 520L200 573Z" fill="#f4b079" stroke="#f4b079"></path><path d="M1553 182L1535 0L1339 188Z" fill="#141b24" stroke="#141b24"></path><path d="M205 1080L423 1080L400 937Z" fill="#00080e" stroke="#00080e"></path><path d="M400 937L423 1080L601 1080Z" fill="#985f75" stroke="#985f75"></path><path d="M1114 1080L1363 1080L1151 864Z" fill="#d0817a" stroke="#d0817a"></path><path d="M1363 889L1545 911L1555 685Z" fill="#e69779" stroke="#e69779"></path><path d="M1363 1080L1545 911L1363 889Z" fill="#b66e79" stroke="#b66e79"></path><path d="M1766 520L1693 389L1518 567Z" fill="#d0817a" stroke="#d0817a"></path><path d="M1561 356L1720 159L1553 182Z" fill="#78516c" stroke="#78516c"></path><path d="M1553 182L1700 0L1535 0Z" fill="#b66e79" stroke="#b66e79"></path><path d="M1723 687L1518 567L1555 685Z" fill="#00080e" stroke="#00080e"></path><path d="M408 0L206 0L386 185Z" fill="#985f75" stroke="#985f75"></path><path d="M0 870L195 921L189 724Z" fill="#d0817a" stroke="#d0817a"></path><path d="M189 724L195 921L400 937Z" fill="#3d374d" stroke="#3d374d"></path><path d="M1715 911L1723 687L1555 685Z" fill="#b66e79" stroke="#b66e79"></path><path d="M1723 687L1766 520L1518 567Z" fill="#b66e79" stroke="#b66e79"></path><path d="M1693 389L1720 159L1561 356Z" fill="#141b24" stroke="#141b24"></path><path d="M1920 199L1720 159L1693 389Z" fill="#d0817a" stroke="#d0817a"></path><path d="M0 336L0 520L214 368Z" fill="#3d374d" stroke="#3d374d"></path><path d="M0 336L214 368L170 212Z" fill="#985f75" stroke="#985f75"></path><path d="M0 218L0 336L170 212Z" fill="#00080e" stroke="#00080e"></path><path d="M1545 911L1715 911L1555 685Z" fill="#f4b079" stroke="#f4b079"></path><path d="M1363 1080L1551 1080L1545 911Z" fill="#141b24" stroke="#141b24"></path><path d="M0 0L0 218L170 212Z" fill="#141b24" stroke="#141b24"></path><path d="M1920 0L1700 0L1720 159Z" fill="#59445f" stroke="#59445f"></path><path d="M1720 159L1700 0L1553 182Z" fill="#00080e" stroke="#00080e"></path><path d="M195 921L205 1080L400 937Z" fill="#141b24" stroke="#141b24"></path><path d="M0 1080L205 1080L195 921Z" fill="#141b24" stroke="#141b24"></path><path d="M0 520L0 730L200 573Z" fill="#f4b079" stroke="#f4b079"></path><path d="M1551 1080L1715 911L1545 911Z" fill="#d0817a" stroke="#d0817a"></path><path d="M1920 553L1920 389L1766 520Z" fill="#252939" stroke="#252939"></path><path d="M0 730L0 870L189 724Z" fill="#78516c" stroke="#78516c"></path><path d="M206 0L0 0L170 212Z" fill="#78516c" stroke="#78516c"></path><path d="M1920 553L1766 520L1723 687Z" fill="#00080e" stroke="#00080e"></path><path d="M1766 520L1920 389L1693 389Z" fill="#141b24" stroke="#141b24"></path><path d="M1920 696L1920 553L1723 687Z" fill="#59445f" stroke="#59445f"></path><path d="M1551 1080L1717 1080L1715 911Z" fill="#59445f" stroke="#59445f"></path><path d="M1920 901L1920 696L1723 687Z" fill="#3d374d" stroke="#3d374d"></path><path d="M1920 901L1723 687L1715 911Z" fill="#252939" stroke="#252939"></path><path d="M1920 389L1920 199L1693 389Z" fill="#e69779" stroke="#e69779"></path><path d="M0 870L0 1080L195 921Z" fill="#3d374d" stroke="#3d374d"></path><path d="M1920 199L1920 0L1720 159Z" fill="#d0817a" stroke="#d0817a"></path><path d="M1920 1080L1920 901L1715 911Z" fill="#78516c" stroke="#78516c"></path><path d="M1717 1080L1920 1080L1715 911Z" fill="#e69779" stroke="#e69779"></path></g></svg>